<?xml version="1.0" encoding="UTF-8" standalone="no"?>
<svg width="233px" height="316px" viewBox="0 0 233 316" version="1.1" xmlns="http://www.w3.org/2000/svg" xmlns:xlink="http://www.w3.org/1999/xlink" xmlns:sketch="http://www.bohemiancoding.com/sketch/ns">
    <!-- Generator: Sketch 3.0.4 (8053) - http://www.bohemiancoding.com/sketch -->
    <title>pinecone-glyph</title>
    <desc>Created with Sketch.</desc>
    <defs></defs>
    <g id="Page-1" stroke="none" stroke-width="1" fill="none" fill-rule="evenodd" sketch:type="MSPage">
        <g id="Artboard-1" sketch:type="MSArtboardGroup" transform="translate(-1589.000000, -235.000000)" fill="#3EB5BE">
            <g id="pinecone-glyph" sketch:type="MSLayerGroup" transform="translate(1589.500000, 235.000000)">
                <path d="M38.4796302,195.857967 C59.7223213,195.857967 76.9548219,178.563327 76.9548219,157.227427 L-5.68434189e-14,157.227427 C-5.68434189e-14,178.563327 17.2302814,195.857967 38.4796302,195.857967 L38.4796302,195.857967 Z M115.434452,195.857967 C136.677143,195.857967 153.909644,178.563327 153.909644,157.227427 L76.9548219,157.227427 C76.9548219,178.563327 94.1873226,195.857967 115.434452,195.857967 L115.434452,195.857967 Z M153.909644,157.227427 C153.909644,178.563327 171.142144,195.857967 192.391493,195.857967 C213.634184,195.857967 230.866685,178.563327 230.866685,157.227427 L153.909644,157.227427 L153.909644,157.227427 Z M76.9570412,136.248827 C98.1997322,136.248827 115.432233,118.954188 115.432233,97.6182879 L38.477411,97.6182879 C38.477411,118.954188 55.7076923,136.248827 76.9570412,136.248827 L76.9570412,136.248827 Z M153.914082,136.248827 C175.156773,136.248827 192.387055,118.954188 192.387055,97.6182879 L115.432233,97.6182879 C115.432233,118.954188 132.664734,136.248827 153.914082,136.248827 L153.914082,136.248827 Z M115.154826,0 C92.6271876,22.6208473 92.6294069,59.2962247 115.154826,81.9104142 C137.678026,59.2962247 137.682465,22.6208473 115.154826,0 L115.154826,0 Z M76.9570412,255.467106 C98.1997322,255.467106 115.432233,238.172466 115.432233,216.838786 L38.477411,216.838786 C38.477411,238.172466 55.7076923,255.467106 76.9570412,255.467106 L76.9570412,255.467106 Z M153.914082,255.467106 C175.156773,255.467106 192.387055,238.172466 192.387055,216.838786 L115.432233,216.838786 C115.432233,238.172466 132.664734,255.467106 153.914082,255.467106 L153.914082,255.467106 Z M115.434452,315.078465 C136.677143,315.078465 153.909644,297.783825 153.909644,276.450145 L76.9548219,276.450145 C76.9548219,297.783825 94.1873226,315.078465 115.434452,315.078465 L115.434452,315.078465 Z" id="Shape" sketch:type="MSShapeGroup"></path>
            </g>
        </g>
    </g>
</svg>