<svg height="395" viewBox="0 0 500.02 395" width="500.02" xmlns="http://www.w3.org/2000/svg"><path d="m386.12 152.77s-14.79 45.93-11.95 52 14.47 18.44 14.47 18.44 140.66-117.01-2.52-70.44z" fill="#57275c"/><path d="m399.09 188.78c20.2-18.6 30.38-41.75 26.58-54.66-3.32-11.15-15-5-20.42-6.16-7-1.39-8.09-10.4 1.5-12.86 5.73-1.77 21.54-1.82 27.65 10.93 8.86 18.41-8.36 49.07-37.56 67.15a.89.89 0 0 1 -1.23-.32c-.64-.86.11-1 3.48-4.07z" fill="#8f6cff"/><path d="m393.78 156.09c2.95 43.89-17.31 64-11.36 84.67 4.18 14.52 12.11 20.69 6.7 42.71-4.87 19.78-30.65 34.53-59.12 66.84-55.78 8-121.31-31.57-140.5-66.83-35.42-65.11-39.33-161.31-39.33-161.31" fill="#a9f5fa"/><path d="m258.86 149.61-1.29-3c-11.25-5-18.7 6.7-56 47.59-24.86 27.33-3.05 93.95 27.7 133.66 82.84 35.37 109.31 31.57 107 15.54-63.53 15.6-91.27-50.4-92.89-55.85-2.46-8-9.27-26.37-10.66-38-1.82-15.17 37.72-47.75 32-100.54-.21-1.88 10.29 16.35 21.59 29.26 26.47 30.33 66.6 14.42 105.88 8 10.13-34.51-5.2-49.68-5.2-49.68l-119.99 7.71c-.59.16-8.36 4.77-8.14 5.31z" fill="#98dce1"/><path d="m345 202.77c3.11 9.38-5.52 26.74-7.56 33.92-4.39 14.68 4.77 11.2 4.77 11.2a.78.78 0 0 1 .64 1.39c-3.48 2.57-7.45 2.09-9.65-1.23-7.29-11 10.13-33.92 9.75-45.5a.92.92 0 0 1 .91-1c.75 0 .91.64 1.13 1.18z" fill="#2f2749" opacity=".19"/><path d="m329.06 265.2a.94.94 0 0 0 .27-.05c8.36-1.77 11.95-2.47 16.61-7a26.05 26.05 0 0 0 3.16-4.82 1.28 1.28 0 0 1 2.36.16c2.14 6.54-2.89 15.43-15.59 16.24a22 22 0 0 1 -7.18-.8c-2.41-.21-2.09-3.91.38-3.75z" fill="#57275c"/><path d="m291.87 309-8.52 4.18s12.27 19.24 28.35 16.13 7.18-18.22 7.18-18.22l-27-2.09z" fill="#ff63d7"/><path d="m275.74 303.84s19.93 3.22 60.33-18.22c-5.47 12.06-14.15 14-14.15 31.35-11-6.81-14.15-5.09-17-2.47-7.39-3.54-19.34-.38-19.34-.38l-9.86-10.29zm-.64-8.15c-2.41 1.13-7.13 4.61-8.84 9.75a.72.72 0 0 1 -1.34.05c-2.41-5.57 2.09-10.66 6.86-11.09 2.35-.26 4.6.71 3.32 1.3zm15.59 14.9c7.22-1.35 12.73 1.3 17.31 7.13a1 1 0 0 1 -.16 1.39c-1.23 1-1.82-1.39-5.3-3.32-5.68-2.89-10.4-2.3-14.9 1.13-2.39 1.89-5.42-1.76-2.89-3.75a16.31 16.31 0 0 1 5.95-2.57zm29.47 12.41c-4.45-10.4-13.45-7.5-13.82-7.4a1.92 1.92 0 0 1 -1.23-3.64c.11-.05 12.7-4.23 18.59 9.49 1 2.2-2.47 4-3.54 1.55zm-52.35-24.38c13 5.22 27 33.53 47.64 26.74h-.05c2.89-1.07 4.66-2.36 5.95-5.36l.16 2.2c-6.81-13.51 3.86-31.83 17.52-36.76a1 1 0 0 1 .8 1.82c-10.81 6-19.7 21.53-13 33.44-1.66 4.82-3.75 7.88-9.48 10.08-25.25 8.42-40-23-51-29.15a1.66 1.66 0 0 1 -.64-2.25 1.68 1.68 0 0 1 2.09-.75z" fill="#57275c"/><path d="m282.81 301.91c19.67 10.34 52.51-3.8 53.48-4.5s4.29-15.65 4.29-15.65-36.49 25.78-57.76 20.15z" fill="#fff"/><path d="m270.49 297.52c30.25 12.1 48.7-16 76.57-18.38a4.23 4.23 0 0 1 4.61 3.91 4.31 4.31 0 0 1 -4.07 4.66c-25 1.19-48.57 29.09-79.09 14.09a2.36 2.36 0 0 1 2-4.29zm53.64-3.43c1.5-1.71-4.82-4.66-2.79-5.84 13.07-7.56 26.68-11.68 37.13-10-.21 2.95-2.52 8.31-8.2 9.06-5.09.69-8.78.08-26.14 6.78zm-1.45 1c1.39-1.61 2-1.5-.48-3.86-.86-.8-2.68-2.47-1.07-3.38 10.88-6.27 25.4-12 37.83-10-.38 4.82-3.64 9.16-8.57 9.86-7.23 1-9.32.32-27.7 7.4zm-1.13-6.48c-1.07.59 3.05 2.95 3.22 4.77 16.72-6.38 20.36-5.84 25.45-6.48s7.39-5.25 7.77-8.25c-11.73-1.71-26.09 4.03-36.44 9.97zm-138.19-1.81c-26.9-49.52-38.53-123.42-40.19-164.31l14-.59c.05 1 4.29 95.34 38.53 158.26 17.41 32 78.34 69.62 130.9 63.56 27.27-30.33 51.76-45.28 55.83-61.9 4.82-19.51-2.14-23.58-6.64-39.07-6.91-23.9 14-42.93 11.09-86.12l13.93-1c3 44.48-16.61 65.86-11.63 83.17 3.91 13.56 12.81 21.92 6.81 46.3-5.52 22.45-31 36.07-62.37 71.71-63.76 9.11-130.48-33.66-150.25-70z" fill="#57275c"/><path d="m193.54 338.73a171.9 171.9 0 0 1 -108.94-160c.01-94.83 76.9-171.78 171.8-171.78a171.9 171.9 0 0 1 158 104.29c-11.31 1-116.28 5.84-203.08 73.21 0 0-34 47.11 23.58 135.21-15.58 6.85-41.36 19.07-41.36 19.07z" fill="#fff"/><path d="m211.28 184.44c86.81-67.36 191.78-72.19 203.08-73.21-25.83-49.57-52.19-85.58-104.27-85.53-16.4 0-95.81-.75-138.14 54.4-35.42 46.09-38.63 98.72-30.65 138.27-1.45 1.66-13.29 2.25-15.16 3.81l-38.31-24-3.16 15 29.26 25c-.91 1.93.59 1 .75 3.54 1.55 24.22 21.27 42.12 37.72 42.12a7.28 7.28 0 0 1 6.22 3.38 235.82 235.82 0 0 0 43 51.5s17.74-12.17 33.28-19.08c-57.66-88.05-23.63-135.16-23.63-135.16z" fill="#e5e5e5"/><path d="m207.21 178.17c-33.44-117.9-91.73-97.7-91.73-97.7l31.24-31.62s68.1 0 96.93 105.2z" fill="#ff63d7"/><path d="m268.77 138.67s.59 60.67-65.26 87.41l3.16-55.57 62.1-31.83z" fill="#7b4eff"/><path d="m351 87.76c-38.88-85.42-107.41-80.81-107.41-80.81 18.22-5.47 112.79 6.65 151 69.78z" fill="#ff63d7"/><path d="m178.86 339.91c-109.79-52.91-137.06-199.31-48.22-287.62 90.07-89.55 240.59-59.7 290.15 56.22l-12.86 5.49c-47-109.81-192.2-135.64-273.86-45 21.54 5.95 42.33 20.36 57.55 43.73 11.84 18.17 18.43 38.59 22.51 59.75-13.54 72.18 5.34 121.65 28.51 144.8l8.84 7.77c-14.2 5.14-5.2 1.88-44.58 16.24a36.34 36.34 0 0 1 -28-1.39zm-54.71-258.91c-62.21 83.44-31.77 201.72 60.76 246.31a22.15 22.15 0 0 0 17.15.86l23.79-8.68c-31.29-39.6-35.2-96.68-26-147-6.15-31.3-19.85-61.49-46.12-79.21a78.28 78.28 0 0 0 -29.58-12.28zm-7.15 141.12-85.17-63.78 4-9.7 90.09 56.36" fill="#57275c"/><ellipse cx="148.27" cy="229.51" fill="#a9f5fa" rx="29.63" ry="36.01"/><path d="m157.21 264.72c-14.57-21.87-13.5-54.93-8.89-73.85 41.9 22.46 32.47 56.76 8.89 73.85z" fill="#98dce1"/><path d="m113.44 236.1a46.08 46.08 0 0 1 4.39-30.6c16.5-30.23 58.41-20.2 65.53 17.36a46.08 46.08 0 0 1 -4.39 30.6c-16.83 30.82-58.57 19.46-65.53-17.36zm29.36-36.17c-12.81 2.41-20.68 17.79-17.63 33.92 4.88 25.88 31.94 34.67 43.3 13.88 11.67-21.26-4.89-51.73-25.67-47.8z" fill="#57275c"/><ellipse cx="147.88" cy="230.17" fill="#ff63d7" rx="10.67" ry="13.94" transform="matrix(.98258038 -.18583811 .18583811 .98258038 -40.21 31.5)"/><path d="m139 244.79c-11.2-10-8-30.65 5.36-33.17s23.9 15.49 17.09 28.94c-4.5 8.94-14.95 10.92-22.45 4.23zm7.18-23.63c-5 1-6.05 11.52-.64 16.35 5 4.45 9.32-1.71 8-8.52-.99-5.27-4.69-8.32-7.36-7.84z" fill="#57275c"/><ellipse cx="20.95" cy="145.75" fill="#ff63d7" rx="15" ry="18.27"/><path d="m21 170c-11.57 0-21-10.91-21-24.25s9.43-24.22 21-24.22 21 10.88 21 24.22-9.47 24.25-21 24.25zm0-36.5c-4.88 0-9.06 5.63-9.06 12.27s4.06 12.23 9.06 12.23 9-5.61 9-12.25-4.12-12.27-9-12.27zm10.59 23.28 6-10.32 91.36 53.42-6 10.32zm-1.42 3 7.5-9.3 83.13 67.05-7.5 9.3zm180.63 18.07-7.61-10.85c56-37.36 139.42-70.89 221.35-82.42l1.82 13.13c-65.21 9.16-120.29 30.44-155.07 46.68-37.72 17.61-60.29 33.3-60.49 33.46zm28.29-22.62c-6.22-35-22-66.78-52.57-86.12-20.9-13.24-40.13-14.9-40.35-14.9l1-13.93c18.89 1.11 89.27 19.48 105.61 112.49l-13.72 2.47zm93.23-118.65c22.45 22.88 32.53 47.27 40.78 77.65a7 7 0 1 1 -13.56 3.54c-10.38-41.51-25.41-72.13-62-93.14-12.38-7.29-35.2-14-53.42-13-6.59.46-7.13-8.84-1-9.49 25.65-2.76 63.42 8.71 89.2 34.44z" fill="#57275c"/><path d="m389.34 220.08s47.74-28.62 60.33-67.74c6.59-20.53-65.59 5.52-98.91 13.29-62.59 14.52-78.55-28.94-78.55-28.94s121.25-115.81 182.61-73.1c82.3 57.29 7.93 134.94-60.44 161.58" fill="#7b4eff"/><path d="m280.13 144.73c47.15 20.53 114.83-17.2 151.43-24.65 55.83-11.09 63.55 27.33 22.29 69.83a2.11 2.11 0 0 1 -3.16-2.79c7.72-9.81 16.5-21.7 20.58-34.67 4.55-14.84 0-24-15.43-25.88-24.92-2.89-52 13-92.86 23.58-27.7 7.18-59.53 11.31-84.45-2.3a1.77 1.77 0 0 1 -.7-2.41 2 2 0 0 1 2.3-.7zm-5.13-8.15c47.75 7.74 94.67-42.35 162-45.07 55.54-1.94 80.21 28.65 39 76a2.1 2.1 0 0 1 -3.27-2.63c54.77-73.5-36.2-75.35-92.13-51.88-49.99 21.39-78.6 34-106.36 27-2.14-.48-1.45-3.75.75-3.43zm-3.86-1.29c57.65-49.89 166.86-93.67 209.5-50.21a2.1 2.1 0 0 1 -2.95 3c-47.14-38.57-154.11 15.07-204.42 50a1.78 1.78 0 0 1 -2.46-.43 1.75 1.75 0 0 1 .32-2.36z" fill="#8d91fd"/><path d="m386.93 216.33a195.2 195.2 0 0 0 18.59-14.33c35.42-30.82 38-53 39.54-57.07a4 4 0 0 0 1.55 4.82c.7.43 1 .32.27.27-16.08-.86-98.7 30-120.67 29.69-25.18-1.18-50-22.45-67-41.16 50.48-52.41 125.49-97.7 197.08-81.24 24 6.53 52.75 62.56 41 84.25-28.74 49.61-77.92 82.61-108.29 85.37l-.8-7.4c35.31-4.5 79.3-47.05 98.81-82.58 7.42-13.79-13.86-59.46-34.56-67.26l.86.27c-33.65-7.23-66 .16-97 14.68-30.44 14.26-62.53 38.59-82.46 58.9l.11-9.43c1 1 24 26.9 46.94 32.15 6.16 1.45 10.23.86 15.81-.21 48.16-9.13 123.06-40.73 118.42-18.44a7.58 7.58 0 0 1 -.75 2.09l.48-1.23c-7.23 30.49-38.85 60-63.12 75.4l-4.77-7.5z" fill="#57275c"/><path d="m243.38 190.77c-7.93 13.45-15.75 21.6-29.31 27.92a2.68 2.68 0 0 1 -2.52-4.72 49.19 49.19 0 0 0 16.77-15.76c9.11-13.45 13.77-32.64 14.15-47.27a7 7 0 1 1 14 .32c0 1.71-2.68 20.63-13.07 39.5z" fill="#8d91fd"/><path d="m204.9 232.94-2.79-13.72c22.18-4.45 37.83-18.65 46.51-42.12a109.8 109.8 0 0 0 6.59-35l14-.16a122.57 122.57 0 0 1 -7.45 40c-10.35 27.96-30.01 45.59-56.86 51zm5.57-54.88-7-11.25c.27-.16 28.61-17.63 62.42-34.08l5.79 12c-33.22 16.13-61 33.23-61.25 33.39z" fill="#57275c"/><path d="m217.12 285.57c30.49 12.92 60.71 69.88 19.13 93.25-55.3 31-84.07-33.39-49.08-60.08s53 20.47 19.34 35.64" fill="#7b4eff"/><path d="m185.93 380.37a1.94 1.94 0 0 1 2.3-3.11c25 16.29 78.66-23 34.61-63.67-1.66-1.55-1-.91-3.91-3.48a8.92 8.92 0 1 1 12.43-12.75c56.81 61.25-16.36 107.02-45.43 83.01z" fill="#8d91fd"/><path d="m205.44 351.43c-8 1.45-14.57-2.47-15.59-12.06a2.22 2.22 0 0 1 4.39-.59c2.12 7.41 7.47 7.74 13.34 3.11 4.45-3.86 6.05-8.68 6.86-14.15a5.85 5.85 0 1 1 11.56 1.72c-1 6.81-8.83 19.88-20.56 21.97z" fill="#8d91fd" opacity=".4"/><path d="m218.35 282.78c13.32 2.22 29.11 12.6 38.53 29.69 33.92 62.43-50.42 106.86-84.45 67.9-16.13-18-13.45-46.68 10.07-64.68 43.24-34 58.41 27.49 26.36 43.52-12.59 5.73-23.58-2.89-23.63-12.54-.05-6.81 5.3-12 11.79-13.88a2.15 2.15 0 0 1 1.88 3.8c-10 7.56-4.88 13.29-.43 14.09 4.72.8 9.43-3.7 11.95-7.72 5.89-9.81 4.72-24.28-3.11-26.37-8.31-2.25-28.83 11-32.58 29.48-3.75 18.06 10.5 36.5 32.42 35.69 15.11-.48 44.31-13 43.3-41.48-.64-18.54-14.25-39.12-35.2-43.84a7.07 7.07 0 0 1 -5.3-8.36 7.2 7.2 0 0 1 8.41-5.31zm-4.88 35.8a6.93 6.93 0 0 1 -2.47-9.58c2.73-4.66 1.13-13.83-4.39-25.24a7 7 0 1 1 12.54-6.11c7.94 16.35 9.22 29.35 3.85 38.47a7 7 0 0 1 -9.52 2.46z" fill="#57275c"/><path d="m295.3 261.24c-10.43-12.68-30.62-19-43.7-10.92a14.14 14.14 0 0 1 -7.85-.6 16.06 16.06 0 0 1 -2.09-1.18 1.43 1.43 0 0 0 -2.2 1.71 10.5 10.5 0 0 0 5.9 5.36 14.9 14.9 0 0 1 -9.17 4.07c-1.34 0-2.57-.38-3.27.91a1.89 1.89 0 0 0 1 2.63c5.57 2.52 11.73.86 16.72-2.47 2.95-2 8.57-7.77 24.06-3.7 7 1.77 13.66 5.25 17.79 7.5a2.22 2.22 0 0 0 2.81-3.31z" fill="#57275c"/><path d="m375.25 206.86c-25-.4-30.64 19.84-25.38 34a10.09 10.09 0 0 0 11.67 6.33c14.46-3.19 19.23-21.95 13.71-40.33z" fill="#fff"/><path d="m374.3 202.1c.55-1.52 1.36-5.26.07-6-2.17-1.19-1.29 3.09-6.54 7-9.22 2.72-18.15 12.16-19.43 23.52a28.78 28.78 0 0 0 1.47 14.22 10.09 10.09 0 0 0 11.67 6.33 17.88 17.88 0 0 0 3.8-1.29 37.1 37.1 0 0 0 4.53-21.55 39 39 0 0 0 -3.45-13.17c1-.7 2.13-1.39 3.32-2.06a27.45 27.45 0 0 1 5.6-2 28.46 28.46 0 0 1 4.16-.51c1.59.09 2.64.27 3.18-.73 1.37-2.55-5.33-3.81-8.38-3.76z" fill="#57275c"/></svg>